<?xml version="1.0" encoding="UTF-8" standalone="no" ?>
<!DOCTYPE svg PUBLIC "-//W3C//DTD SVG 1.1//EN" "http://www.w3.org/Graphics/SVG/1.1/DTD/svg11.dtd">
<svg xmlns="http://www.w3.org/2000/svg" xmlns:xlink="http://www.w3.org/1999/xlink" version="1.1" width="1080" height="1080" viewBox="0 0 1080 1080" xml:space="preserve">
<desc>Created with Fabric.js 5.2.4</desc>
<defs>
</defs>
<rect x="0" y="0" width="100%" height="100%" fill="transparent"></rect>
<g transform="matrix(1 0 0 1 540 540)" id="0e25f998-b5eb-49a5-89d8-62a1f78ab216"  >
</g>
<g transform="matrix(1 0 0 1 540 540)" id="7f3ba42d-c8dc-48b8-8930-b2ecfa688cc6"  >
<rect style="stroke: none; stroke-width: 1; stroke-dasharray: none; stroke-linecap: butt; stroke-dashoffset: 0; stroke-linejoin: miter; stroke-miterlimit: 4; fill: rgb(255,255,255); fill-rule: nonzero; opacity: 1; visibility: hidden;" vector-effect="non-scaling-stroke"  x="-540" y="-540" rx="0" ry="0" width="1080" height="1080" />
</g>
<g transform="matrix(1.56 0 0 1.56 539.36 539.36)"  >
<path style="stroke: none; stroke-width: 1; stroke-dasharray: none; stroke-linecap: butt; stroke-dashoffset: 0; stroke-linejoin: miter; stroke-miterlimit: 4; fill: rgb(202,48,48); fill-rule: nonzero; opacity: 1;" vector-effect="non-scaling-stroke"  transform=" translate(-256, -256)" d="M 256 0 C 114.842 0 0 114.842 0 256 C 0 397.158 114.842 512 256 512 C 397.158 512 512 397.158 512 256 C 512 114.84199999999998 397.158 0 256 0 z M 256 467.478 C 139.39 467.478 44.522 372.61 44.522 256 C 44.522 139.39 139.39 44.522 256 44.522 C 372.61 44.522 467.478 139.39 467.478 256 C 467.478 372.61 372.61 467.478 256 467.478 z" stroke-linecap="round" />
</g>
<g transform="matrix(1.56 0 0 1.56 540 540)"  >
<path style="stroke: none; stroke-width: 1; stroke-dasharray: none; stroke-linecap: butt; stroke-dashoffset: 0; stroke-linejoin: miter; stroke-miterlimit: 4; fill: rgb(58,46,46); fill-rule: nonzero; opacity: 1;" vector-effect="non-scaling-stroke"  transform=" translate(-256, -256)" d="M 256 72.348 C 154.734 72.348 72.348 154.734 72.348 256 C 72.348 357.26599999999996 154.734 439.652 256 439.652 C 357.26599999999996 439.652 439.652 357.266 439.652 256 C 439.652 154.73399999999998 357.266 72.348 256 72.348 z M 256 105.739 C 265.22 105.739 272.696 113.214 272.696 122.435 C 272.696 131.655 265.221 139.131 256 139.131 C 246.78 139.131 239.304 131.656 239.304 122.435 C 239.304 113.214 246.78 105.739 256 105.739 z M 122.435 272.696 C 113.215 272.696 105.739 265.221 105.739 256 C 105.739 246.78 113.214 239.304 122.435 239.304 C 131.655 239.304 139.131 246.779 139.131 256 C 139.13 265.22 131.655 272.696 122.435 272.696 z M 256 406.261 C 246.78 406.261 239.304 398.786 239.304 389.565 C 239.304 380.34499999999997 246.779 372.86899999999997 256 372.86899999999997 C 265.22 372.86899999999997 272.696 380.344 272.696 389.565 C 272.696 398.786 265.22 406.261 256 406.261 z M 338.734 197.527 L 268.125 268.131 C 264.864 271.392 260.592 273.02299999999997 256.321 273.02299999999997 C 252.05000000000004 273.02299999999997 247.77700000000002 271.392 244.51700000000002 268.131 L 197.06600000000003 220.67999999999998 C 190.54500000000004 214.164 190.54500000000004 203.58799999999997 197.06600000000003 197.07099999999997 C 203.58700000000002 190.54999999999998 214.15300000000002 190.54999999999998 220.67500000000004 197.07099999999997 L 256.321 232.71699999999998 L 315.125 173.91799999999998 C 321.646 167.397 332.212 167.397 338.734 173.91799999999998 C 345.255 180.44 345.255 191.01 338.734 197.527 z M 389.565 272.696 C 380.34499999999997 272.696 372.86899999999997 265.221 372.86899999999997 256 C 372.86899999999997 246.78 380.344 239.304 389.565 239.304 C 398.785 239.304 406.261 246.779 406.261 256 C 406.261 265.22 398.786 272.696 389.565 272.696 z" stroke-linecap="round" />
</g>
</svg>